<svg xmlns="http://www.w3.org/2000/svg" xmlns:xlink="http://www.w3.org/1999/xlink" xmlns:lucid="lucid" width="1370.19" height="987.16"><g transform="translate(-135.8077405149051 -206.4406334688349)" lucid:page-tab-id="SV0iGjJB1.DW"><path d="M0 0h2000v1500H0z" fill="#fff"/><path d="M157.3 319.2a6 6 0 0 1 6-6h152.45a6 6 0 0 1 6 6v88a6 6 0 0 1-6 6H163.3a6 6 0 0 1-6-6z" stroke="#5e5e5e" stroke-width="3" fill="#fff"/><use xlink:href="#a" transform="matrix(1,0,0,1,162.30774051490516,318.1906334688349) translate(21.38888888888888 37.46527777777778)"/><use xlink:href="#b" transform="matrix(1,0,0,1,162.30774051490516,318.1906334688349) translate(49.72222222222222 64.13194444444446)"/><path d="M521.3 319.2a6 6 0 0 1 6-6h152.45a6 6 0 0 1 6 6v88a6 6 0 0 1-6 6H527.3a6 6 0 0 1-6-6z" stroke="#5e5e5e" stroke-width="3" fill="#fff"/><use xlink:href="#c" transform="matrix(1,0,0,1,526.3077405149054,318.1906334688349) translate(30.648148148148145 48.71527777777778)"/><path d="M342.96 364.17h-18.7v-1.95h18.7zm175.03 0h-37.9v-1.95H518z" stroke="#5e5e5e" stroke-width=".05" fill="#5e5e5e"/><path d="M324.28 364.17h-1.03v-1.95h1.03z" fill="#5e5e5e"/><path stroke="#5e5e5e" stroke-width=".05" fill="#5e5e5e"/><path d="M519.76 363.2l-18.8 10.84-.96-1.7 15.86-9.15-15.86-9.16.97-1.7z" stroke="#5e5e5e" stroke-width=".05" fill="#5e5e5e"/><use xlink:href="#d" transform="matrix(1,0,0,1,342.9620615025594,352.52396680216833) translate(0 14.222222222222223)"/><path d="M885.3 319.2a6 6 0 0 1 6-6h152.45a6 6 0 0 1 6 6v88a6 6 0 0 1-6 6H891.3a6 6 0 0 1-6-6z" stroke="#5e5e5e" stroke-width="3" fill="#fff"/><use xlink:href="#e" transform="matrix(1,0,0,1,890.3077405149058,318.1906334688349) translate(9.691358024691354 48.71527777777778)"/><path d="M742.67 364.17h-54.42v-1.95h54.42zm139.32 0h-53.6v-1.95H882z" stroke="#5e5e5e" stroke-width=".05" fill="#5e5e5e"/><path d="M688.28 364.17h-1.03v-1.95h1.03z" fill="#5e5e5e"/><path stroke="#5e5e5e" stroke-width=".05" fill="#5e5e5e"/><path d="M883.76 363.2l-18.78 10.84-.98-1.7 15.86-9.15-15.86-9.16.98-1.7z" stroke="#5e5e5e" stroke-width=".05" fill="#5e5e5e"/><use xlink:href="#f" transform="matrix(1,0,0,1,742.6657649840414,341.8573001355016) translate(25.634629629629636 14.222222222222223)"/><use xlink:href="#g" transform="matrix(1,0,0,1,742.6657649840414,341.8573001355016) translate(0.005000000000002558 35.55555555555556)"/><path d="M1249.3 233.94a6 6 0 0 1 6-6h152.45a6 6 0 0 1 6 6v88a6 6 0 0 1-6 6H1255.3a6 6 0 0 1-6-6z" stroke="#5e5e5e" stroke-width="3" fill="#dfe3e8"/><use xlink:href="#h" transform="matrix(1,0,0,1,1254.3077405149054,232.9406334688349) translate(52.839506172839506 37.46527777777778)"/><use xlink:href="#i" transform="matrix(1,0,0,1,1254.3077405149054,232.9406334688349) translate(48.48765432098766 64.13194444444446)"/><path d="M1114 331.44l-61.54 15.13-.47-1.9 62-15.24zm132.28-32.5l-61.22 15.03v-2l60.75-14.93z" stroke="#5e5e5e" stroke-width=".05" fill="#5e5e5e"/><path d="M1052.48 346.56l-1.23.3v-2l.77-.2z" fill="#5e5e5e"/><path stroke="#5e5e5e" stroke-width=".05" fill="#5e5e5e"/><path d="M1247.76 297.56l-15.65 15-1.34-1.4 13.2-12.67-17.57-5.12.53-1.87z" stroke="#5e5e5e" stroke-width=".05" fill="#5e5e5e"/><use xlink:href="#f" transform="matrix(1,0,0,1,1113.9990996098036,300.36963764095793) translate(18.3012962962963 14.222222222222223)"/><use xlink:href="#j" transform="matrix(1,0,0,1,1113.9990996098036,300.36963764095793) translate(0.005000000000002558 35.55555555555556)"/><path d="M1246.28 425.8l-.47 1.9-72.6-18.2v-2.02zm-120.43-30.2v2.02l-73.87-18.52.48-1.9z" stroke="#5e5e5e" stroke-width=".05" fill="#5e5e5e"/><path d="M1052.48 377.2l-.47 1.9-.75-.18v-2z" fill="#5e5e5e"/><path stroke="#5e5e5e" stroke-width=".05" fill="#5e5e5e"/><path d="M1247.76 427.18l-20.86 5.95-.53-1.88 17.6-5.02-13.15-12.74 1.36-1.4z" stroke="#5e5e5e" stroke-width=".05" fill="#5e5e5e"/><use xlink:href="#f" transform="matrix(1,0,0,1,1125.8509585330817,381.21749254663104) translate(6.449444444444442 14.222222222222223)"/><use xlink:href="#k" transform="matrix(1,0,0,1,1125.8509585330817,381.21749254663104) translate(0.004999999999999005 35.55555555555556)"/><path d="M1249.3 383.2a6 6 0 0 1 6-6h152.45a6 6 0 0 1 6 6v88a6 6 0 0 1-6 6H1255.3a6 6 0 0 1-6-6z" stroke="#5e5e5e" stroke-width="3" fill="#dfe3e8"/><use xlink:href="#l" transform="matrix(1,0,0,1,1254.3077405149054,382.1906334688348) translate(55.956790123456784 37.46527777777778)"/><use xlink:href="#m" transform="matrix(1,0,0,1,1254.3077405149054,382.1906334688348) translate(46.66666666666667 64.13194444444446)"/><path d="M157.3 509.9a6 6 0 0 1 6-6h152.45a6 6 0 0 1 6 6v88a6 6 0 0 1-6 6H163.3a6 6 0 0 1-6-6z" stroke="#5e5e5e" stroke-width="3" fill="#f7f4e4"/><use xlink:href="#n" transform="matrix(1,0,0,1,162.30774051490516,508.89896680216816) translate(37.40740740740741 37.46527777777778)"/><use xlink:href="#o" transform="matrix(1,0,0,1,162.30774051490516,508.89896680216816) translate(45.49382716049383 64.13194444444446)"/><path d="M236.2 501.4v-68.2" stroke="#5e5e5e" stroke-width="2" fill="none"/><path d="M237.17 502.4h-1.95v-1.03h1.95z" stroke="#5e5e5e" stroke-width=".05" fill="#5e5e5e"/><path d="M236.2 417.93l4.63 14.26h-9.27z" stroke="#5e5e5e" stroke-width="2" fill="#fff"/><path d="M157.3 689.9a6 6 0 0 1 6-6h152.45a6 6 0 0 1 6 6v88a6 6 0 0 1-6 6H163.3a6 6 0 0 1-6-6z" stroke="#5e5e5e" stroke-width="3" fill="#e3fae3"/><use xlink:href="#p" transform="matrix(1,0,0,1,162.3077405149051,688.8989668021682) translate(35.00000000000001 48.71527777777778)"/><use xlink:href="#q" transform="matrix(1,0,0,1,162.3077405149051,688.8989668021682) translate(105.18518518518519 48.71527777777778)"/><path d="M521.3 689.9a6 6 0 0 1 6-6h152.45a6 6 0 0 1 6 6v88a6 6 0 0 1-6 6H527.3a6 6 0 0 1-6-6z" stroke="#5e5e5e" stroke-width="3" fill="#e3fae3"/><use xlink:href="#r" transform="matrix(1,0,0,1,526.3077405149054,688.8989668021682) translate(25.740740740740748 37.46527777777778)"/><use xlink:href="#s" transform="matrix(1,0,0,1,526.3077405149054,688.8989668021682) translate(97.1604938271605 37.46527777777778)"/><use xlink:href="#t" transform="matrix(1,0,0,1,526.3077405149054,688.8989668021682) translate(52.808641975308646 64.13194444444446)"/><path d="M885.3 689.9a6 6 0 0 1 6-6h152.45a6 6 0 0 1 6 6v88a6 6 0 0 1-6 6H891.3a6 6 0 0 1-6-6z" stroke="#5e5e5e" stroke-width="3" fill="#e3fae3"/><use xlink:href="#u" transform="matrix(1,0,0,1,890.3077405149058,688.8989668021682) translate(18.919753086419753 37.46527777777778)"/><use xlink:href="#v" transform="matrix(1,0,0,1,890.3077405149058,688.8989668021682) translate(51.635802469135804 64.13194444444446)"/><path d="M1249.3 532.44a6 6 0 0 1 6-6h152.45a6 6 0 0 1 6 6v88a6 6 0 0 1-6 6H1255.3a6 6 0 0 1-6-6z" stroke="#5e5e5e" stroke-width="3" fill="#e3fae3"/><use xlink:href="#w" transform="matrix(1,0,0,1,1254.3077405149065,531.4406334688347) translate(18.91975308641976 37.46527777777778)"/><use xlink:href="#x" transform="matrix(1,0,0,1,1254.3077405149065,531.4406334688347) translate(110.21604938271605 37.46527777777778)"/><use xlink:href="#y" transform="matrix(1,0,0,1,1254.3077405149065,531.4406334688347) translate(35.64814814814815 64.13194444444446)"/><path d="M1249.3 805.33a6 6 0 0 1 6-6h152.45a6 6 0 0 1 6 6v88a6 6 0 0 1-6 6H1255.3a6 6 0 0 1-6-6z" stroke="#5e5e5e" stroke-width="3" fill="#e3fae3"/><use xlink:href="#z" transform="matrix(1,0,0,1,1254.3077405149065,804.3333333333335) translate(39.320987654320994 48.71527777777778)"/><use xlink:href="#A" transform="matrix(1,0,0,1,1254.3077405149065,804.3333333333335) translate(100.8641975308642 48.71527777777778)"/><path d="M239.53 681.9v-5.04m0-5.04v-10.08m0-5.04v-10.08m0-5.04V631.5m0-5.03V616.4m0-5.05v-5.04" stroke="#3a414a" fill="none"/><path d="M240 682.4h-.94v-.5h.94z" stroke="#3a414a" stroke-width=".05" fill="#3a414a"/><path d="M229.53 623.72l10-17.32 10 17.32M603.53 681.9v-4.93m0-4.93v-9.87m0-4.93v-9.86m0-4.93v-9.87m0-4.93v-9.86m0-4.94V603m0-4.94v-9.86m0-4.93v-9.86m0-4.92v-9.87m0-4.92v-9.86m0-4.93V529m0-4.93v-9.87m0-4.93v-9.87m0-4.93v-9.86m0-4.93v-9.85m0-4.94v-9.85m0-4.93v-9.86m0-4.93v-9.87m0-4.93v-4.93" stroke="#3a414a" fill="none"/><path d="M604 682.4h-.95v-.5h.96z" stroke="#3a414a" stroke-width=".05" fill="#3a414a"/><path d="M593.53 433l10-17.3 10 17.3M967.53 681.9v-4.93m0-4.93v-9.87m0-4.93v-9.86m0-4.93v-9.87m0-4.93v-9.86m0-4.94V603m0-4.94v-9.86m0-4.93v-9.86m0-4.92v-9.87m0-4.92v-9.86m0-4.93V529m0-4.93v-9.87m0-4.93v-9.87m0-4.93v-9.86m0-4.93v-9.85m0-4.94v-9.85m0-4.93v-9.86m0-4.93v-9.87m0-4.93v-4.93" stroke="#3a414a" fill="none"/><path d="M968 682.4h-.95v-.5h.96z" stroke="#3a414a" stroke-width=".05" fill="#3a414a"/><path d="M957.53 433l10-17.3 10 17.3" stroke="#3a414a" fill="none"/><path d="M342.96 734.87h-18.7v-1.95h18.7zm175.03 0h-37.9v-1.95H518z" stroke="#5e5e5e" stroke-width=".05" fill="#5e5e5e"/><path d="M324.28 734.87h-1.03v-1.95h1.03z" fill="#5e5e5e"/><path stroke="#5e5e5e" stroke-width=".05" fill="#5e5e5e"/><path d="M519.76 733.9l-18.78 10.84-.98-1.7 15.86-9.14-15.86-9.16.98-1.7z" stroke="#5e5e5e" stroke-width=".05" fill="#5e5e5e"/><use xlink:href="#d" transform="matrix(1,0,0,1,342.9620615025593,723.2323001355015) translate(0 14.222222222222223)"/><path d="M742.67 734.87h-54.42v-1.95h54.42zm139.32 0h-53.6v-1.95H882z" stroke="#5e5e5e" stroke-width=".05" fill="#5e5e5e"/><path d="M688.28 734.87h-1.03v-1.95h1.03z" fill="#5e5e5e"/><path stroke="#5e5e5e" stroke-width=".05" fill="#5e5e5e"/><path d="M883.76 733.9l-18.78 10.84-.98-1.7 15.86-9.14-15.86-9.16.98-1.7z" stroke="#5e5e5e" stroke-width=".05" fill="#5e5e5e"/><use xlink:href="#f" transform="matrix(1,0,0,1,742.6657649840414,712.5656334688348) translate(25.634629629629636 14.222222222222223)"/><use xlink:href="#g" transform="matrix(1,0,0,1,742.6657649840414,712.5656334688348) translate(0.005000000000002558 35.55555555555556)"/><path d="M1125.85 675.4l-73.2 58.63-1.23-1.52 74.43-59.6zM1247 578.33l-73.8 59.1v-2.5l72.58-58.12z" stroke="#5e5e5e" stroke-width=".05" fill="#5e5e5e"/><path d="M1052.66 734.02l-1.4 1.13v-2.5l.18-.15z" fill="#5e5e5e"/><path stroke="#5e5e5e" stroke-width=".05" fill="#5e5e5e"/><path d="M1239.9 596.68l-1.83-.7 6.65-17.07-18.1 2.78-.3-1.93 21.45-3.28z" stroke="#5e5e5e" stroke-width=".05" fill="#5e5e5e"/><use xlink:href="#f" transform="matrix(1,0,0,1,1125.8509501692272,633.836466802168) translate(6.449444444444442 14.222222222222223)"/><use xlink:href="#k" transform="matrix(1,0,0,1,1125.8509501692272,633.836466802168) translate(0.004999999999999005 35.55555555555556)"/><path d="M1246.73 847.57l-.98 1.68-61.82-36.3h1.13v-1.6zm-131.6-77.3H1114v1.6l-62.38-36.62 1-1.68z" stroke="#5e5e5e" stroke-width=".05" fill="#5e5e5e"/><path d="M1052.63 733.58l-1 1.68-.38-.23v-2.26z" fill="#5e5e5e"/><path stroke="#5e5e5e" stroke-width=".05" fill="#5e5e5e"/><path d="M1247.77 849.3l-21.7-.15.02-1.95 18.3.13-9.04-15.92 1.7-.95z" stroke="#5e5e5e" stroke-width=".05" fill="#5e5e5e"/><use xlink:href="#f" transform="matrix(1,0,0,1,1113.9990983173752,770.2828167344175) translate(18.3012962962963 14.222222222222223)"/><use xlink:href="#j" transform="matrix(1,0,0,1,1113.9990983173752,770.2828167344175) translate(0.005000000000002558 35.55555555555556)"/><path d="M1415.75 849.33h5.48m5.5 0h10.95m5.5 0h10.95m5.5 0h10.95m5.5 0h10.95m5.5 0h5.47l.94-.07.9-.22.88-.36.8-.5.72-.6.6-.72.5-.8.37-.87.23-.93.07-.94v-5.04m0-5.05v-10.08m0-5.03v-10.08m0-5.04v-10.08m0-5.04v-10.08m0-5.04V762.7m0-5.04v-10.08m0-5.04v-10.08m0-5.04v-10.08m0-5.04v-10.07m0-5.04v-10.1m0-5.03V672m0-5.05v-10.08m0-5.04v-10.08m0-5.04v-10.07m0-5.04v-10.1m0-5.03V596.4m0-5.04v-10.1m0-5.02v-10.08m0-5.04v-10.08m0-5.04v-10.08m0-5.04V520.8m0-5.04v-10.08m0-5.04v-10.08m0-5.04v-10.08m0-5.04v-10.07m0-5.04v-10.1m0-5.03V430.1m0-5.05v-10.08m0-5.04v-10.08m0-5.04v-10.07m0-5.04v-10.1m0-5.03V354.5m0-5.05V339.4m0-5.04v-10.08m0-5.04v-10.08m0-5.04v-10.08m0-5.04v-5.04l-.07-.94-.22-.9-.35-.88-.5-.8-.6-.72-.72-.6-.8-.5-.88-.37-.9-.22-.95-.06h-5.46m-5.45 0h-10.92m-5.46 0h-10.9m-5.47 0h-10.9m-5.47 0h-10.9m-5.46 0h-5.46" stroke="#3a414a" fill="none"/><path d="M1415.77 849.8h-.52v-.94h.52z" stroke="#3a414a" stroke-width=".05" fill="#3a414a"/><path d="M1433.57 287.94l-17.32-10 17.32-10M1415.75 576.44h5.6m5.57 0h11.16m5.6 0h5.57l.94-.07.9-.22.88-.36.8-.5.7-.62.63-.7.5-.82.36-.87.22-.92.07-.94v-5.08m0-5.1v-10.15m0-5.08v-10.16m0-5.1v-10.15m0-5.08v-10.16m0-5.1v-10.15m0-5.08v-10.16m0-5.1v-10.15m0-5.08v-10.16m0-5.1v-5.07l-.07-.95-.22-.9-.36-.88-.5-.8-.6-.72-.72-.6-.8-.5-.87-.37-.9-.22-.95-.07h-5.5m-5.53 0h-11.03m-5.52 0h-5.52" stroke="#3a414a" fill="none"/><path d="M1415.77 576.92h-.52v-.95h.52z" stroke="#3a414a" stroke-width=".05" fill="#3a414a"/><path d="M1433.57 437.2l-17.32-10 17.32-10" stroke="#3a414a" fill="none"/><path d="M1249.3 659.43a6 6 0 0 1 6-6h152.45a6 6 0 0 1 6 6v88a6 6 0 0 1-6 6H1255.3a6 6 0 0 1-6-6z" stroke="#5e5e5e" stroke-width="3" fill="#e3fae3"/><use xlink:href="#B" transform="matrix(1,0,0,1,1254.3077405149065,658.4343665311654) translate(38.611111111111114 23.40277777777778)"/><use xlink:href="#C" transform="matrix(1,0,0,1,1254.3077405149065,658.4343665311654) translate(27.592592592592588 50.06944444444445)"/><use xlink:href="#D" transform="matrix(1,0,0,1,1254.3077405149065,658.4343665311654) translate(34.96913580246913 76.73611111111111)"/><path d="M1125.85 723.32l-73.46 11.4-.3-1.94 73.75-11.43zm120.3-18.64l-72.94 11.3V714l72.66-11.25z" stroke="#5e5e5e" stroke-width=".05" fill="#5e5e5e"/><path d="M1052.4 734.7l-1.15.2v-2l.87-.12z" fill="#5e5e5e"/><path stroke="#5e5e5e" stroke-width=".05" fill="#5e5e5e"/><path d="M1247.76 703.44l-16.9 13.6-1.22-1.52 14.26-11.48-17.07-6.62.7-1.82z" stroke="#5e5e5e" stroke-width=".05" fill="#5e5e5e"/><use xlink:href="#f" transform="matrix(1,0,0,1,1125.8509501692272,697.3333333333335) translate(6.449444444444442 14.222222222222223)"/><use xlink:href="#k" transform="matrix(1,0,0,1,1125.8509501692272,697.3333333333335) translate(0.004999999999999005 35.55555555555556)"/><path d="M1415.75 703.43h5.6m5.57 0h11.16m5.6 0h5.57l.94-.07.9-.22.88-.36.8-.5.7-.6.63-.72.5-.8.36-.87.22-.93.07-.94v-4.9m0-4.88v-9.8m0-4.88v-9.8m0-4.88v-9.8m0-4.9v-9.78m0-4.9v-9.78m0-4.9v-9.78m0-4.9v-9.78m0-4.9v-9.78m0-4.9v-9.78m0-4.9v-9.78m0-4.9v-9.78m0-4.9v-9.78m0-4.9v-9.78m0-4.9v-9.78m0-4.9v-9.78m0-4.9v-9.78m0-4.9v-9.78m0-4.9v-4.9l-.07-.93-.22-.9-.36-.88-.5-.8-.6-.72-.72-.6-.8-.5-.87-.37-.9-.22-.95-.07h-5.5m-5.53 0h-11.03m-5.52 0h-5.52" stroke="#3a414a" fill="none"/><path d="M1415.77 703.9h-.52v-.94h.52z" stroke="#3a414a" stroke-width=".05" fill="#3a414a"/><path d="M1433.57 437.2l-17.32-10 17.32-10" stroke="#3a414a" fill="none"/><path d="M885.3 884a6 6 0 0 1 6-6h152.45a6 6 0 0 1 6 6v88a6 6 0 0 1-6 6H891.3a6 6 0 0 1-6-6z" stroke="#5e5e5e" stroke-width="3" fill="#e3fae3"/><use xlink:href="#u" transform="matrix(1,0,0,1,890.3077405149058,883.0000000000001) translate(18.919753086419753 37.46527777777778)"/><use xlink:href="#E" transform="matrix(1,0,0,1,890.3077405149058,883.0000000000001) translate(54.69135802469136 64.13194444444446)"/><path d="M882.7 881.66l-.9 1.72-58.34-31.1h.02v-2.2zm-135.1-72.04h-.02v2.2l-59.95-31.97.92-1.72z" stroke="#5e5e5e" stroke-width=".05" fill="#5e5e5e"/><path d="M688.57 778.14l-.92 1.72-.6-.32.1-.47.1-1.1v-.53z" fill="#5e5e5e"/><path stroke="#5e5e5e" stroke-width=".05" fill="#5e5e5e"/><path d="M883.8 883.36l-21.67.73-.06-1.96 18.3-.62-9.7-15.54 1.67-1.03z" stroke="#5e5e5e" stroke-width=".05" fill="#5e5e5e"/><use xlink:href="#f" transform="matrix(1,0,0,1,747.5793452330126,809.6161500416069) translate(20.721049382716053 14.222222222222223)"/><use xlink:href="#F" transform="matrix(1,0,0,1,747.5793452330126,809.6161500416069) translate(0.005000000000002558 35.55555555555556)"/><path d="M1114 903.94l-61.46 24.6-.72-1.82 62.18-24.88zm132.48-53.03l-61.42 24.6v-2.1l60.7-24.3z" stroke="#5e5e5e" stroke-width=".05" fill="#5e5e5e"/><path d="M1052.57 928.52l-1.32.53v-2.1l.6-.24z" fill="#5e5e5e"/><path stroke="#5e5e5e" stroke-width=".05" fill="#5e5e5e"/><path d="M1247.76 849.35l-13.4 17.05-1.54-1.2 11.32-14.4-18.12-2.6.27-1.94z" stroke="#5e5e5e" stroke-width=".05" fill="#5e5e5e"/><g><use xlink:href="#f" transform="matrix(1,0,0,1,1113.9990983173752,867.3333333333334) translate(18.3012962962963 14.222222222222223)"/><use xlink:href="#j" transform="matrix(1,0,0,1,1113.9990983173752,867.3333333333334) translate(0.005000000000002558 35.55555555555556)"/></g><path d="M1249.3 951.23a6 6 0 0 1 6-6h152.45a6 6 0 0 1 6 6v88a6 6 0 0 1-6 6H1255.3a6 6 0 0 1-6-6z" stroke="#5e5e5e" stroke-width="3" fill="#e3fae3"/><g><use xlink:href="#G" transform="matrix(1,0,0,1,1254.3077405149065,950.2323001355015) translate(43.58024691358025 37.46527777777778)"/><use xlink:href="#x" transform="matrix(1,0,0,1,1254.3077405149065,950.2323001355015) translate(85.55555555555556 37.46527777777778)"/><use xlink:href="#H" transform="matrix(1,0,0,1,1254.3077405149065,950.2323001355015) translate(31.851851851851848 64.13194444444446)"/></g><path d="M1246.4 993.72l-.63 1.85-72.56-24.82v-2.07zm-120.55-41.23v2.05l-73.97-25.3.63-1.85z" stroke="#5e5e5e" stroke-width=".05" fill="#5e5e5e"/><path d="M1052.54 927.4l-.63 1.85-.65-.22v-2.06z" fill="#5e5e5e"/><path stroke="#5e5e5e" stroke-width=".05" fill="#5e5e5e"/><path d="M1247.76 995.22l-21.28 4.18-.38-1.92 17.97-3.53-12.04-13.8 1.47-1.27z" stroke="#5e5e5e" stroke-width=".05" fill="#5e5e5e"/><g><use xlink:href="#f" transform="matrix(1,0,0,1,1125.8509501692272,940.2828167344175) translate(6.449444444444442 14.222222222222223)"/><use xlink:href="#k" transform="matrix(1,0,0,1,1125.8509501692272,940.2828167344175) translate(0.004999999999999005 35.55555555555556)"/></g><path d="M1415.75 995.23h5.6m5.57 0h11.16m5.6 0h5.57l.94-.07.9-.22.88-.36.8-.5.7-.6.63-.72.5-.8.36-.87.22-.93.07-.94v-5m0-5v-9.98m0-5v-10m0-5v-9.98m0-5v-10m0-5v-9.98m0-5v-10m0-5v-9.98m0-5v-10m0-5v-5l-2.95-.95-1.8-2.46-.25-1.57.97-2.95 2.45-1.8 1.58-.25v-5.07m0-5.08v-10.15m0-5.08V808.8m0-5.07v-10.15m0-5.08v-10.15m0-5.08v-10.15m0-5.08V747.9m0-5.08v-10.16m0-5.07v-10.16m0-5.08V702.2m0-5.07v-10.15m0-5.07v-10.14m0-5.08v-10.15m0-5.08V641.3m0-5.08v-10.15m0-5.07v-10.15m0-5.08v-10.15m0-5.08V580.4m0-5.1v-10.14m0-5.07v-10.17m0-5.07V534.7m0-5.07v-10.15m0-5.08v-10.15m0-5.07v-10.16m0-5.07V473.8m0-5.08v-10.15m0-5.08v-10.16m0-5.07v-5.08l-.07-.95-.22-.9-.36-.88-.5-.8-.6-.72-.72-.6-.8-.5-.87-.37-.9-.22-.95-.07h-5.5m-5.53 0h-11.03m-5.52 0h-5.52" stroke="#3a414a" fill="none"/><path d="M1415.77 995.7h-.52v-.94h.52z" stroke="#3a414a" stroke-width=".05" fill="#3a414a"/><path d="M1433.57 437.2l-17.32-10 17.32-10" stroke="#3a414a" fill="none"/><path d="M885.3 1078.1a6 6 0 0 1 6-6h152.45a6 6 0 0 1 6 6v88a6 6 0 0 1-6 6H891.3a6 6 0 0 1-6-6z" stroke="#5e5e5e" stroke-width="3" fill="#dfe3e8"/><g><use xlink:href="#l" transform="matrix(1,0,0,1,890.3077405149058,1077.101033197832) translate(55.956790123456784 37.46527777777778)"/><use xlink:href="#I" transform="matrix(1,0,0,1,890.3077405149058,1077.101033197832) translate(54.72222222222223 64.13194444444446)"/></g><path d="M967.53 980v4.98m0 5v9.95m0 4.98v9.98m0 4.98v9.97m0 4.98v9.98m0 4.98v9.97m0 4.98v5" stroke="#3a414a" fill="none"/><path d="M968 980h-.95v-.5h.96z" stroke="#3a414a" stroke-width=".05" fill="#3a414a"/><path d="M977.53 1052.28l-10 17.32-10-17.32" stroke="#3a414a" fill="none"/><defs><path fill="#333" d="M33-154v-36h34v36H33zM33 0v-36h34V0H33" id="J"/><path fill="#333" d="M205 0l-28-72H64L36 0H1l101-248h38L239 0h-34zm-38-99l-47-123c-12 45-31 82-46 123h93" id="K"/><path fill="#333" d="M84 4C-5 8 30-112 23-190h32v120c0 31 7 50 39 49 72-2 45-101 50-169h31l1 190h-30c-1-10 1-25-2-33-11 22-28 36-60 37" id="L"/><path fill="#333" d="M59-47c-2 24 18 29 38 22v24C64 9 27 4 27-40v-127H5v-23h24l9-43h21v43h35v23H59v120" id="M"/><path fill="#333" d="M106-169C34-169 62-67 57 0H25v-261h32l-1 103c12-21 28-36 61-36 89 0 53 116 60 194h-32v-121c2-32-8-49-39-48" id="N"/><path fill="#333" d="M100-194c62-1 85 37 85 99 1 63-27 99-86 99S16-35 15-95c0-66 28-99 85-99zM99-20c44 1 53-31 53-75 0-43-8-75-51-75s-53 32-53 75 10 74 51 75" id="O"/><path fill="#333" d="M114-163C36-179 61-72 57 0H25l-1-190h30c1 12-1 29 2 39 6-27 23-49 58-41v29" id="P"/><path fill="#333" d="M24-231v-30h32v30H24zM24 0v-190h32V0H24" id="Q"/><path fill="#333" d="M135-143c-3-34-86-38-87 0 15 53 115 12 119 90S17 21 10-45l28-5c4 36 97 45 98 0-10-56-113-15-118-90-4-57 82-63 122-42 12 7 21 19 24 35" id="R"/><path fill="#333" d="M100-194c63 0 86 42 84 106H49c0 40 14 67 53 68 26 1 43-12 49-29l28 8c-11 28-37 45-77 45C44 4 14-33 15-96c1-61 26-98 85-98zm52 81c6-60-76-77-97-28-3 7-6 17-6 28h103" id="S"/><path fill="#333" d="M85-194c31 0 48 13 60 33l-1-100h32l1 261h-30c-2-10 0-23-3-31C134-8 116 4 85 4 32 4 16-35 15-94c0-66 23-100 70-100zm9 24c-40 0-46 34-46 75 0 40 6 74 45 74 42 0 51-32 51-76 0-42-9-74-50-73" id="T"/><g id="a"><use transform="matrix(0.06172839506172839,0,0,0.06172839506172839,0,0)" xlink:href="#J"/><use transform="matrix(0.06172839506172839,0,0,0.06172839506172839,6.172839506172839,0)" xlink:href="#K"/><use transform="matrix(0.06172839506172839,0,0,0.06172839506172839,20.98765432098765,0)" xlink:href="#L"/><use transform="matrix(0.06172839506172839,0,0,0.06172839506172839,33.33333333333333,0)" xlink:href="#M"/><use transform="matrix(0.06172839506172839,0,0,0.06172839506172839,39.50617283950617,0)" xlink:href="#N"/><use transform="matrix(0.06172839506172839,0,0,0.06172839506172839,51.85185185185185,0)" xlink:href="#O"/><use transform="matrix(0.06172839506172839,0,0,0.06172839506172839,64.19753086419753,0)" xlink:href="#P"/><use transform="matrix(0.06172839506172839,0,0,0.06172839506172839,71.54320987654322,0)" xlink:href="#Q"/><use transform="matrix(0.06172839506172839,0,0,0.06172839506172839,76.41975308641976,0)" xlink:href="#R"/><use transform="matrix(0.06172839506172839,0,0,0.06172839506172839,87.53086419753087,0)" xlink:href="#S"/><use transform="matrix(0.06172839506172839,0,0,0.06172839506172839,99.87654320987656,0)" xlink:href="#T"/></g><g id="b"><use transform="matrix(0.06172839506172839,0,0,0.06172839506172839,0,0)" xlink:href="#K"/><use transform="matrix(0.06172839506172839,0,0,0.06172839506172839,14.814814814814813,0)" xlink:href="#R"/><use transform="matrix(0.06172839506172839,0,0,0.06172839506172839,25.925925925925924,0)" xlink:href="#R"/><use transform="matrix(0.06172839506172839,0,0,0.06172839506172839,37.03703703703704,0)" xlink:href="#S"/><use transform="matrix(0.06172839506172839,0,0,0.06172839506172839,49.382716049382715,0)" xlink:href="#M"/></g><path fill="#333" d="M179-190L93 31C79 59 56 82 12 73V49c39 6 53-20 64-50L1-190h34L92-34l54-156h33" id="U"/><g id="c"><use transform="matrix(0.06172839506172839,0,0,0.06172839506172839,0,0)" xlink:href="#J"/><use transform="matrix(0.06172839506172839,0,0,0.06172839506172839,6.172839506172839,0)" xlink:href="#K"/><use transform="matrix(0.06172839506172839,0,0,0.06172839506172839,20.98765432098765,0)" xlink:href="#L"/><use transform="matrix(0.06172839506172839,0,0,0.06172839506172839,33.33333333333333,0)" xlink:href="#M"/><use transform="matrix(0.06172839506172839,0,0,0.06172839506172839,39.50617283950617,0)" xlink:href="#N"/><use transform="matrix(0.06172839506172839,0,0,0.06172839506172839,51.85185185185185,0)" xlink:href="#O"/><use transform="matrix(0.06172839506172839,0,0,0.06172839506172839,64.19753086419753,0)" xlink:href="#P"/><use transform="matrix(0.06172839506172839,0,0,0.06172839506172839,71.54320987654322,0)" xlink:href="#Q"/><use transform="matrix(0.06172839506172839,0,0,0.06172839506172839,76.41975308641976,0)" xlink:href="#M"/><use transform="matrix(0.06172839506172839,0,0,0.06172839506172839,82.5925925925926,0)" xlink:href="#U"/></g><path fill="#333" d="M141-36C126-15 110 5 73 4 37 3 15-17 15-53c-1-64 63-63 125-63 3-35-9-54-41-54-24 1-41 7-42 31l-33-3c5-37 33-52 76-52 45 0 72 20 72 64v82c-1 20 7 32 28 27v20c-31 9-61-2-59-35zM48-53c0 20 12 33 32 33 41-3 63-29 60-74-43 2-92-5-92 41" id="V"/><path fill="#333" d="M117-194c89-4 53 116 60 194h-32v-121c0-31-8-49-39-48C34-167 62-67 57 0H25l-1-190h30c1 10-1 24 2 32 11-22 29-35 61-36" id="W"/><g id="d"><use transform="matrix(0.04938271604938272,0,0,0.04938271604938272,0,0)" xlink:href="#J"/><use transform="matrix(0.04938271604938272,0,0,0.04938271604938272,4.938271604938272,0)" xlink:href="#N"/><use transform="matrix(0.04938271604938272,0,0,0.04938271604938272,14.814814814814817,0)" xlink:href="#V"/><use transform="matrix(0.04938271604938272,0,0,0.04938271604938272,24.69135802469136,0)" xlink:href="#R"/><use transform="matrix(0.04938271604938272,0,0,0.04938271604938272,33.580246913580254,0)" xlink:href="#K"/><use transform="matrix(0.04938271604938272,0,0,0.04938271604938272,45.43209876543211,0)" xlink:href="#L"/><use transform="matrix(0.04938271604938272,0,0,0.04938271604938272,55.30864197530866,0)" xlink:href="#M"/><use transform="matrix(0.04938271604938272,0,0,0.04938271604938272,60.24691358024693,0)" xlink:href="#N"/><use transform="matrix(0.04938271604938272,0,0,0.04938271604938272,70.12345679012347,0)" xlink:href="#O"/><use transform="matrix(0.04938271604938272,0,0,0.04938271604938272,80.00000000000001,0)" xlink:href="#P"/><use transform="matrix(0.04938271604938272,0,0,0.04938271604938272,85.87654320987656,0)" xlink:href="#Q"/><use transform="matrix(0.04938271604938272,0,0,0.04938271604938272,89.7777777777778,0)" xlink:href="#R"/><use transform="matrix(0.04938271604938272,0,0,0.04938271604938272,98.66666666666669,0)" xlink:href="#V"/><use transform="matrix(0.04938271604938272,0,0,0.04938271604938272,108.54320987654322,0)" xlink:href="#M"/><use transform="matrix(0.04938271604938272,0,0,0.04938271604938272,113.4814814814815,0)" xlink:href="#Q"/><use transform="matrix(0.04938271604938272,0,0,0.04938271604938272,117.38271604938272,0)" xlink:href="#O"/><use transform="matrix(0.04938271604938272,0,0,0.04938271604938272,127.25925925925927,0)" xlink:href="#W"/></g><g id="e"><use transform="matrix(0.06172839506172839,0,0,0.06172839506172839,0,0)" xlink:href="#J"/><use transform="matrix(0.06172839506172839,0,0,0.06172839506172839,6.172839506172839,0)" xlink:href="#K"/><use transform="matrix(0.06172839506172839,0,0,0.06172839506172839,20.98765432098765,0)" xlink:href="#L"/><use transform="matrix(0.06172839506172839,0,0,0.06172839506172839,33.33333333333333,0)" xlink:href="#M"/><use transform="matrix(0.06172839506172839,0,0,0.06172839506172839,39.50617283950617,0)" xlink:href="#N"/><use transform="matrix(0.06172839506172839,0,0,0.06172839506172839,51.85185185185185,0)" xlink:href="#O"/><use transform="matrix(0.06172839506172839,0,0,0.06172839506172839,64.19753086419753,0)" xlink:href="#P"/><use transform="matrix(0.06172839506172839,0,0,0.06172839506172839,71.54320987654322,0)" xlink:href="#Q"/><use transform="matrix(0.06172839506172839,0,0,0.06172839506172839,76.41975308641976,0)" xlink:href="#R"/><use transform="matrix(0.06172839506172839,0,0,0.06172839506172839,87.53086419753087,0)" xlink:href="#V"/><use transform="matrix(0.06172839506172839,0,0,0.06172839506172839,99.87654320987656,0)" xlink:href="#M"/><use transform="matrix(0.06172839506172839,0,0,0.06172839506172839,106.0493827160494,0)" xlink:href="#Q"/><use transform="matrix(0.06172839506172839,0,0,0.06172839506172839,110.92592592592594,0)" xlink:href="#O"/><use transform="matrix(0.06172839506172839,0,0,0.06172839506172839,123.27160493827162,0)" xlink:href="#W"/></g><path fill="#333" d="M24 0v-261h32V0H24" id="X"/><g id="f"><use transform="matrix(0.04938271604938272,0,0,0.04938271604938272,0,0)" xlink:href="#O"/><use transform="matrix(0.04938271604938272,0,0,0.04938271604938272,9.876543209876544,0)" xlink:href="#T"/><use transform="matrix(0.04938271604938272,0,0,0.04938271604938272,19.75308641975309,0)" xlink:href="#P"/><use transform="matrix(0.04938271604938272,0,0,0.04938271604938272,25.629629629629633,0)" xlink:href="#X"/><use transform="matrix(0.04938271604938272,0,0,0.04938271604938272,29.530864197530867,0)" xlink:href="#J"/></g><path fill="#333" d="M115-194c55 1 70 41 70 98S169 2 115 4C84 4 66-9 55-30l1 105H24l-1-265h31l2 30c10-21 28-34 59-34zm-8 174c40 0 45-34 45-75s-6-73-45-74c-42 0-51 32-51 76 0 43 10 73 51 73" id="Y"/><path fill="#333" d="M210-169c-67 3-38 105-44 169h-31v-121c0-29-5-50-35-48C34-165 62-65 56 0H25l-1-190h30c1 10-1 24 2 32 10-44 99-50 107 0 11-21 27-35 58-36 85-2 47 119 55 194h-31v-121c0-29-5-49-35-48" id="Z"/><g id="g"><use transform="matrix(0.04938271604938272,0,0,0.04938271604938272,0,0)" xlink:href="#Y"/><use transform="matrix(0.04938271604938272,0,0,0.04938271604938272,9.876543209876544,0)" xlink:href="#S"/><use transform="matrix(0.04938271604938272,0,0,0.04938271604938272,19.75308641975309,0)" xlink:href="#P"/><use transform="matrix(0.04938271604938272,0,0,0.04938271604938272,25.629629629629633,0)" xlink:href="#Z"/><use transform="matrix(0.04938271604938272,0,0,0.04938271604938272,40.39506172839506,0)" xlink:href="#Q"/><use transform="matrix(0.04938271604938272,0,0,0.04938271604938272,44.2962962962963,0)" xlink:href="#R"/><use transform="matrix(0.04938271604938272,0,0,0.04938271604938272,53.18518518518519,0)" xlink:href="#R"/><use transform="matrix(0.04938271604938272,0,0,0.04938271604938272,62.074074074074076,0)" xlink:href="#Q"/><use transform="matrix(0.04938271604938272,0,0,0.04938271604938272,65.97530864197532,0)" xlink:href="#O"/><use transform="matrix(0.04938271604938272,0,0,0.04938271604938272,75.85185185185186,0)" xlink:href="#W"/></g><path fill="#333" d="M108 0H70L1-190h34L89-25l56-165h34" id="aa"/><g id="h"><use transform="matrix(0.06172839506172839,0,0,0.06172839506172839,0,0)" xlink:href="#Y"/><use transform="matrix(0.06172839506172839,0,0,0.06172839506172839,12.345679012345679,0)" xlink:href="#P"/><use transform="matrix(0.06172839506172839,0,0,0.06172839506172839,19.691358024691358,0)" xlink:href="#O"/><use transform="matrix(0.06172839506172839,0,0,0.06172839506172839,32.03703703703704,0)" xlink:href="#aa"/><use transform="matrix(0.06172839506172839,0,0,0.06172839506172839,43.14814814814815,0)" xlink:href="#J"/></g><path fill="#333" d="M177-190C167-65 218 103 67 71c-23-6-38-20-44-43l32-5c15 47 100 32 89-28v-30C133-14 115 1 83 1 29 1 15-40 15-95c0-56 16-97 71-98 29-1 48 16 59 35 1-10 0-23 2-32h30zM94-22c36 0 50-32 50-73 0-42-14-75-50-75-39 0-46 34-46 75s6 73 46 73" id="ab"/><g id="i"><use transform="matrix(0.06172839506172839,0,0,0.06172839506172839,0,0)" xlink:href="#K"/><use transform="matrix(0.06172839506172839,0,0,0.06172839506172839,14.814814814814813,0)" xlink:href="#ab"/><use transform="matrix(0.06172839506172839,0,0,0.06172839506172839,27.160493827160494,0)" xlink:href="#S"/><use transform="matrix(0.06172839506172839,0,0,0.06172839506172839,39.50617283950617,0)" xlink:href="#W"/><use transform="matrix(0.06172839506172839,0,0,0.06172839506172839,51.85185185185185,0)" xlink:href="#M"/></g><g id="j"><use transform="matrix(0.04938271604938272,0,0,0.04938271604938272,0,0)" xlink:href="#V"/><use transform="matrix(0.04938271604938272,0,0,0.04938271604938272,9.876543209876544,0)" xlink:href="#R"/><use transform="matrix(0.04938271604938272,0,0,0.04938271604938272,18.765432098765434,0)" xlink:href="#R"/><use transform="matrix(0.04938271604938272,0,0,0.04938271604938272,27.654320987654323,0)" xlink:href="#Q"/><use transform="matrix(0.04938271604938272,0,0,0.04938271604938272,31.555555555555557,0)" xlink:href="#ab"/><use transform="matrix(0.04938271604938272,0,0,0.04938271604938272,41.4320987654321,0)" xlink:href="#W"/><use transform="matrix(0.04938271604938272,0,0,0.04938271604938272,51.308641975308646,0)" xlink:href="#S"/><use transform="matrix(0.04938271604938272,0,0,0.04938271604938272,61.18518518518519,0)" xlink:href="#S"/></g><path fill="#333" d="M96-169c-40 0-48 33-48 73s9 75 48 75c24 0 41-14 43-38l32 2c-6 37-31 61-74 61-59 0-76-41-82-99-10-93 101-131 147-64 4 7 5 14 7 22l-32 3c-4-21-16-35-41-35" id="ac"/><g id="k"><use transform="matrix(0.04938271604938272,0,0,0.04938271604938272,0,0)" xlink:href="#V"/><use transform="matrix(0.04938271604938272,0,0,0.04938271604938272,9.876543209876544,0)" xlink:href="#ac"/><use transform="matrix(0.04938271604938272,0,0,0.04938271604938272,18.765432098765434,0)" xlink:href="#M"/><use transform="matrix(0.04938271604938272,0,0,0.04938271604938272,23.703703703703706,0)" xlink:href="#Q"/><use transform="matrix(0.04938271604938272,0,0,0.04938271604938272,27.60493827160494,0)" xlink:href="#O"/><use transform="matrix(0.04938271604938272,0,0,0.04938271604938272,37.48148148148148,0)" xlink:href="#W"/></g><g id="l"><use transform="matrix(0.06172839506172839,0,0,0.06172839506172839,0,0)" xlink:href="#O"/><use transform="matrix(0.06172839506172839,0,0,0.06172839506172839,12.345679012345679,0)" xlink:href="#T"/><use transform="matrix(0.06172839506172839,0,0,0.06172839506172839,24.691358024691358,0)" xlink:href="#P"/><use transform="matrix(0.06172839506172839,0,0,0.06172839506172839,32.03703703703704,0)" xlink:href="#X"/><use transform="matrix(0.06172839506172839,0,0,0.06172839506172839,36.91358024691358,0)" xlink:href="#J"/></g><g id="m"><use transform="matrix(0.06172839506172839,0,0,0.06172839506172839,0,0)" xlink:href="#K"/><use transform="matrix(0.06172839506172839,0,0,0.06172839506172839,14.814814814814813,0)" xlink:href="#ac"/><use transform="matrix(0.06172839506172839,0,0,0.06172839506172839,25.925925925925924,0)" xlink:href="#M"/><use transform="matrix(0.06172839506172839,0,0,0.06172839506172839,32.098765432098766,0)" xlink:href="#Q"/><use transform="matrix(0.06172839506172839,0,0,0.06172839506172839,36.97530864197531,0)" xlink:href="#O"/><use transform="matrix(0.06172839506172839,0,0,0.06172839506172839,49.32098765432099,0)" xlink:href="#W"/></g><g id="n"><use transform="matrix(0.06172839506172839,0,0,0.06172839506172839,0,0)" xlink:href="#Z"/><use transform="matrix(0.06172839506172839,0,0,0.06172839506172839,18.456790123456788,0)" xlink:href="#V"/><use transform="matrix(0.06172839506172839,0,0,0.06172839506172839,30.80246913580247,0)" xlink:href="#L"/><use transform="matrix(0.06172839506172839,0,0,0.06172839506172839,43.148148148148145,0)" xlink:href="#M"/><use transform="matrix(0.06172839506172839,0,0,0.06172839506172839,49.32098765432099,0)" xlink:href="#N"/><use transform="matrix(0.06172839506172839,0,0,0.06172839506172839,61.666666666666664,0)" xlink:href="#O"/><use transform="matrix(0.06172839506172839,0,0,0.06172839506172839,74.01234567901234,0)" xlink:href="#J"/></g><path fill="#333" d="M30-248c87 1 191-15 191 75 0 78-77 80-158 76V0H30v-248zm33 125c57 0 124 11 124-50 0-59-68-47-124-48v98" id="ad"/><g id="o"><use transform="matrix(0.06172839506172839,0,0,0.06172839506172839,0,0)" xlink:href="#ad"/><use transform="matrix(0.06172839506172839,0,0,0.06172839506172839,14.814814814814813,0)" xlink:href="#S"/><use transform="matrix(0.06172839506172839,0,0,0.06172839506172839,27.160493827160494,0)" xlink:href="#P"/><use transform="matrix(0.06172839506172839,0,0,0.06172839506172839,34.50617283950617,0)" xlink:href="#Z"/><use transform="matrix(0.06172839506172839,0,0,0.06172839506172839,52.96296296296296,0)" xlink:href="#Q"/><use transform="matrix(0.06172839506172839,0,0,0.06172839506172839,57.839506172839506,0)" xlink:href="#M"/></g><g id="p"><use transform="matrix(0.06172839506172839,0,0,0.06172839506172839,0,0)" xlink:href="#ad"/><use transform="matrix(0.06172839506172839,0,0,0.06172839506172839,14.814814814814813,0)" xlink:href="#S"/><use transform="matrix(0.06172839506172839,0,0,0.06172839506172839,27.160493827160494,0)" xlink:href="#P"/><use transform="matrix(0.06172839506172839,0,0,0.06172839506172839,34.50617283950617,0)" xlink:href="#Z"/><use transform="matrix(0.06172839506172839,0,0,0.06172839506172839,52.96296296296296,0)" xlink:href="#Q"/><use transform="matrix(0.06172839506172839,0,0,0.06172839506172839,57.839506172839506,0)" xlink:href="#M"/></g><path fill="#333" d="M195 0l-74-108L45 0H8l94-129-87-119h37l69 98 67-98h37l-84 118L233 0h-38" id="ae"/><use transform="matrix(0.06172839506172839,0,0,0.06172839506172839,0,0)" xlink:href="#ae" id="q"/><path fill="#333" d="M240 0l2-218c-23 76-54 145-80 218h-23L58-218 59 0H30v-248h44l77 211c21-75 51-140 76-211h43V0h-30" id="af"/><g id="r"><use transform="matrix(0.06172839506172839,0,0,0.06172839506172839,0,0)" xlink:href="#af"/><use transform="matrix(0.06172839506172839,0,0,0.06172839506172839,18.456790123456788,0)" xlink:href="#Q"/><use transform="matrix(0.06172839506172839,0,0,0.06172839506172839,23.33333333333333,0)" xlink:href="#W"/><use transform="matrix(0.06172839506172839,0,0,0.06172839506172839,35.679012345679006,0)" xlink:href="#Q"/><use transform="matrix(0.06172839506172839,0,0,0.06172839506172839,40.55555555555555,0)" xlink:href="#W"/><use transform="matrix(0.06172839506172839,0,0,0.06172839506172839,52.90123456790123,0)" xlink:href="#ab"/></g><g id="s"><use transform="matrix(0.06172839506172839,0,0,0.06172839506172839,0,0)" xlink:href="#K"/><use transform="matrix(0.06172839506172839,0,0,0.06172839506172839,14.814814814814813,0)" xlink:href="#ac"/><use transform="matrix(0.06172839506172839,0,0,0.06172839506172839,25.925925925925924,0)" xlink:href="#M"/></g><path fill="#333" d="M27 0v-27h64v-190l-56 39v-29l58-41h29v221h61V0H27" id="ag"/><path fill="#333" d="M99-251c64 0 84 50 84 122C183-37 130 33 47-8c-14-7-20-23-25-40l30-5c6 39 69 39 84 7 9-19 16-44 16-74-10 22-31 35-62 35-49 0-73-33-73-83 0-54 28-83 82-83zm-1 141c31-1 51-18 51-49 0-36-14-67-51-67-34 0-49 23-49 58 0 34 15 58 49 58" id="ah"/><path fill="#333" d="M64 0c3-98 48-159 88-221H18v-27h164v26C143-157 98-101 97 0H64" id="ai"/><path fill="#333" d="M134-131c28 9 52 24 51 62-1 50-34 73-85 73S17-19 16-69c0-36 21-54 49-61-75-25-45-126 34-121 46 3 78 18 79 63 0 33-17 51-44 57zm-34-11c31 1 46-15 46-44 0-28-17-43-47-42-29 0-46 13-45 42 1 28 16 44 46 44zm1 122c35 0 51-18 51-52 0-30-18-46-53-46-33 0-51 17-51 47 0 34 19 51 53 51" id="aj"/><g id="t"><use transform="matrix(0.06172839506172839,0,0,0.06172839506172839,0,0)" xlink:href="#ag"/><use transform="matrix(0.06172839506172839,0,0,0.06172839506172839,12.345679012345679,0)" xlink:href="#ah"/><use transform="matrix(0.06172839506172839,0,0,0.06172839506172839,24.691358024691358,0)" xlink:href="#ai"/><use transform="matrix(0.06172839506172839,0,0,0.06172839506172839,37.03703703703704,0)" xlink:href="#aj"/></g><g id="u"><use transform="matrix(0.06172839506172839,0,0,0.06172839506172839,0,0)" xlink:href="#ad"/><use transform="matrix(0.06172839506172839,0,0,0.06172839506172839,14.814814814814813,0)" xlink:href="#P"/><use transform="matrix(0.06172839506172839,0,0,0.06172839506172839,22.160493827160494,0)" xlink:href="#O"/><use transform="matrix(0.06172839506172839,0,0,0.06172839506172839,34.50617283950617,0)" xlink:href="#R"/><use transform="matrix(0.06172839506172839,0,0,0.06172839506172839,45.61728395061728,0)" xlink:href="#Y"/><use transform="matrix(0.06172839506172839,0,0,0.06172839506172839,57.962962962962955,0)" xlink:href="#S"/><use transform="matrix(0.06172839506172839,0,0,0.06172839506172839,70.30864197530863,0)" xlink:href="#ac"/><use transform="matrix(0.06172839506172839,0,0,0.06172839506172839,81.41975308641975,0)" xlink:href="#M"/><use transform="matrix(0.06172839506172839,0,0,0.06172839506172839,87.59259259259258,0)" xlink:href="#Q"/><use transform="matrix(0.06172839506172839,0,0,0.06172839506172839,92.46913580246913,0)" xlink:href="#W"/><use transform="matrix(0.06172839506172839,0,0,0.06172839506172839,104.81481481481481,0)" xlink:href="#ab"/></g><path fill="#333" d="M233-177c-1 41-23 64-60 70L243 0h-38l-65-103H63V0H30v-248c88 3 205-21 203 71zM63-129c60-2 137 13 137-47 0-61-80-42-137-45v92" id="ak"/><g id="v"><use transform="matrix(0.06172839506172839,0,0,0.06172839506172839,0,0)" xlink:href="#ak"/><use transform="matrix(0.06172839506172839,0,0,0.06172839506172839,15.987654320987653,0)" xlink:href="#Q"/><use transform="matrix(0.06172839506172839,0,0,0.06172839506172839,20.864197530864196,0)" xlink:href="#ab"/><use transform="matrix(0.06172839506172839,0,0,0.06172839506172839,33.20987654320987,0)" xlink:href="#N"/><use transform="matrix(0.06172839506172839,0,0,0.06172839506172839,45.55555555555555,0)" xlink:href="#M"/></g><g id="w"><use transform="matrix(0.06172839506172839,0,0,0.06172839506172839,0,0)" xlink:href="#Y"/><use transform="matrix(0.06172839506172839,0,0,0.06172839506172839,12.345679012345679,0)" xlink:href="#P"/><use transform="matrix(0.06172839506172839,0,0,0.06172839506172839,19.691358024691358,0)" xlink:href="#O"/><use transform="matrix(0.06172839506172839,0,0,0.06172839506172839,32.03703703703704,0)" xlink:href="#R"/><use transform="matrix(0.06172839506172839,0,0,0.06172839506172839,43.14814814814815,0)" xlink:href="#Y"/><use transform="matrix(0.06172839506172839,0,0,0.06172839506172839,55.49382716049383,0)" xlink:href="#S"/><use transform="matrix(0.06172839506172839,0,0,0.06172839506172839,67.8395061728395,0)" xlink:href="#ac"/><use transform="matrix(0.06172839506172839,0,0,0.06172839506172839,78.95061728395062,0)" xlink:href="#M"/></g><path fill="#333" d="M101-234c-31-9-42 10-38 44h38v23H63V0H32v-167H5v-23h27c-7-52 17-82 69-68v24" id="al"/><g id="x"><use transform="matrix(0.06172839506172839,0,0,0.06172839506172839,0,0)" xlink:href="#al"/><use transform="matrix(0.06172839506172839,0,0,0.06172839506172839,6.172839506172839,0)" xlink:href="#O"/><use transform="matrix(0.06172839506172839,0,0,0.06172839506172839,18.51851851851852,0)" xlink:href="#P"/></g><g id="y"><use transform="matrix(0.06172839506172839,0,0,0.06172839506172839,0,0)" xlink:href="#Z"/><use transform="matrix(0.06172839506172839,0,0,0.06172839506172839,18.456790123456788,0)" xlink:href="#Q"/><use transform="matrix(0.06172839506172839,0,0,0.06172839506172839,23.33333333333333,0)" xlink:href="#W"/><use transform="matrix(0.06172839506172839,0,0,0.06172839506172839,35.679012345679006,0)" xlink:href="#S"/><use transform="matrix(0.06172839506172839,0,0,0.06172839506172839,48.02469135802468,0)" xlink:href="#P"/><use transform="matrix(0.06172839506172839,0,0,0.06172839506172839,55.37037037037036,0)" xlink:href="#V"/><use transform="matrix(0.06172839506172839,0,0,0.06172839506172839,67.71604938271604,0)" xlink:href="#X"/><use transform="matrix(0.06172839506172839,0,0,0.06172839506172839,72.59259259259258,0)" xlink:href="#R"/></g><g id="z"><use transform="matrix(0.06172839506172839,0,0,0.06172839506172839,0,0)" xlink:href="#af"/><use transform="matrix(0.06172839506172839,0,0,0.06172839506172839,18.456790123456788,0)" xlink:href="#Q"/><use transform="matrix(0.06172839506172839,0,0,0.06172839506172839,23.33333333333333,0)" xlink:href="#W"/><use transform="matrix(0.06172839506172839,0,0,0.06172839506172839,35.679012345679006,0)" xlink:href="#S"/><use transform="matrix(0.06172839506172839,0,0,0.06172839506172839,48.02469135802468,0)" xlink:href="#P"/></g><path fill="#333" d="M137-103V0h-34v-103L8-248h37l75 118 75-118h37" id="am"/><use transform="matrix(0.06172839506172839,0,0,0.06172839506172839,0,0)" xlink:href="#am" id="A"/><g id="B"><use transform="matrix(0.06172839506172839,0,0,0.06172839506172839,0,0)" xlink:href="#ac"/><use transform="matrix(0.06172839506172839,0,0,0.06172839506172839,11.11111111111111,0)" xlink:href="#O"/><use transform="matrix(0.06172839506172839,0,0,0.06172839506172839,23.45679012345679,0)" xlink:href="#W"/><use transform="matrix(0.06172839506172839,0,0,0.06172839506172839,35.80246913580247,0)" xlink:href="#T"/><use transform="matrix(0.06172839506172839,0,0,0.06172839506172839,48.148148148148145,0)" xlink:href="#L"/><use transform="matrix(0.06172839506172839,0,0,0.06172839506172839,60.49382716049382,0)" xlink:href="#ac"/><use transform="matrix(0.06172839506172839,0,0,0.06172839506172839,71.60493827160494,0)" xlink:href="#M"/></g><g id="C"><use transform="matrix(0.06172839506172839,0,0,0.06172839506172839,0,0)" xlink:href="#ab"/><use transform="matrix(0.06172839506172839,0,0,0.06172839506172839,12.345679012345679,0)" xlink:href="#S"/><use transform="matrix(0.06172839506172839,0,0,0.06172839506172839,24.691358024691358,0)" xlink:href="#O"/><use transform="matrix(0.06172839506172839,0,0,0.06172839506172839,37.03703703703704,0)" xlink:href="#X"/><use transform="matrix(0.06172839506172839,0,0,0.06172839506172839,41.91358024691358,0)" xlink:href="#O"/><use transform="matrix(0.06172839506172839,0,0,0.06172839506172839,54.25925925925926,0)" xlink:href="#ab"/><use transform="matrix(0.06172839506172839,0,0,0.06172839506172839,66.60493827160494,0)" xlink:href="#Q"/><use transform="matrix(0.06172839506172839,0,0,0.06172839506172839,71.48148148148148,0)" xlink:href="#ac"/><use transform="matrix(0.06172839506172839,0,0,0.06172839506172839,82.5925925925926,0)" xlink:href="#V"/><use transform="matrix(0.06172839506172839,0,0,0.06172839506172839,94.93827160493828,0)" xlink:href="#X"/></g><g id="D"><use transform="matrix(0.06172839506172839,0,0,0.06172839506172839,0,0)" xlink:href="#Z"/><use transform="matrix(0.06172839506172839,0,0,0.06172839506172839,18.456790123456788,0)" xlink:href="#V"/><use transform="matrix(0.06172839506172839,0,0,0.06172839506172839,30.80246913580247,0)" xlink:href="#Y"/><use transform="matrix(0.06172839506172839,0,0,0.06172839506172839,43.148148148148145,0)" xlink:href="#Y"/><use transform="matrix(0.06172839506172839,0,0,0.06172839506172839,55.49382716049382,0)" xlink:href="#Q"/><use transform="matrix(0.06172839506172839,0,0,0.06172839506172839,60.37037037037037,0)" xlink:href="#W"/><use transform="matrix(0.06172839506172839,0,0,0.06172839506172839,72.71604938271605,0)" xlink:href="#ab"/></g><path fill="#333" d="M30-248c118-7 216 8 213 122C240-48 200 0 122 0H30v-248zM63-27c89 8 146-16 146-99s-60-101-146-95v194" id="an"/><g id="E"><use transform="matrix(0.06172839506172839,0,0,0.06172839506172839,0,0)" xlink:href="#an"/><use transform="matrix(0.06172839506172839,0,0,0.06172839506172839,15.987654320987653,0)" xlink:href="#L"/><use transform="matrix(0.06172839506172839,0,0,0.06172839506172839,28.333333333333332,0)" xlink:href="#M"/><use transform="matrix(0.06172839506172839,0,0,0.06172839506172839,34.50617283950617,0)" xlink:href="#U"/></g><path fill="#333" d="M115-194c53 0 69 39 70 98 0 66-23 100-70 100C84 3 66-7 56-30L54 0H23l1-261h32v101c10-23 28-34 59-34zm-8 174c40 0 45-34 45-75 0-40-5-75-45-74-42 0-51 32-51 76 0 43 10 73 51 73" id="ao"/><g id="F"><use transform="matrix(0.04938271604938272,0,0,0.04938271604938272,0,0)" xlink:href="#O"/><use transform="matrix(0.04938271604938272,0,0,0.04938271604938272,9.876543209876544,0)" xlink:href="#ao"/><use transform="matrix(0.04938271604938272,0,0,0.04938271604938272,19.75308641975309,0)" xlink:href="#Q"/><use transform="matrix(0.04938271604938272,0,0,0.04938271604938272,23.654320987654323,0)" xlink:href="#X"/><use transform="matrix(0.04938271604938272,0,0,0.04938271604938272,27.555555555555557,0)" xlink:href="#ab"/><use transform="matrix(0.04938271604938272,0,0,0.04938271604938272,37.4320987654321,0)" xlink:href="#V"/><use transform="matrix(0.04938271604938272,0,0,0.04938271604938272,47.308641975308646,0)" xlink:href="#M"/><use transform="matrix(0.04938271604938272,0,0,0.04938271604938272,52.24691358024692,0)" xlink:href="#Q"/><use transform="matrix(0.04938271604938272,0,0,0.04938271604938272,56.14814814814815,0)" xlink:href="#O"/><use transform="matrix(0.04938271604938272,0,0,0.04938271604938272,66.0246913580247,0)" xlink:href="#W"/></g><g id="G"><use transform="matrix(0.06172839506172839,0,0,0.06172839506172839,0,0)" xlink:href="#Y"/><use transform="matrix(0.06172839506172839,0,0,0.06172839506172839,12.345679012345679,0)" xlink:href="#V"/><use transform="matrix(0.06172839506172839,0,0,0.06172839506172839,24.691358024691358,0)" xlink:href="#U"/></g><g id="H"><use transform="matrix(0.06172839506172839,0,0,0.06172839506172839,0,0)" xlink:href="#T"/><use transform="matrix(0.06172839506172839,0,0,0.06172839506172839,12.345679012345679,0)" xlink:href="#V"/><use transform="matrix(0.06172839506172839,0,0,0.06172839506172839,24.691358024691358,0)" xlink:href="#Z"/><use transform="matrix(0.06172839506172839,0,0,0.06172839506172839,43.148148148148145,0)" xlink:href="#V"/><use transform="matrix(0.06172839506172839,0,0,0.06172839506172839,55.49382716049382,0)" xlink:href="#ab"/><use transform="matrix(0.06172839506172839,0,0,0.06172839506172839,67.8395061728395,0)" xlink:href="#S"/><use transform="matrix(0.06172839506172839,0,0,0.06172839506172839,80.18518518518519,0)" xlink:href="#R"/></g><g id="I"><use transform="matrix(0.06172839506172839,0,0,0.06172839506172839,0,0)" xlink:href="#ak"/><use transform="matrix(0.06172839506172839,0,0,0.06172839506172839,15.987654320987653,0)" xlink:href="#L"/><use transform="matrix(0.06172839506172839,0,0,0.06172839506172839,28.333333333333332,0)" xlink:href="#X"/><use transform="matrix(0.06172839506172839,0,0,0.06172839506172839,33.20987654320987,0)" xlink:href="#S"/></g></defs></g></svg>